<svg class="logo" width="20" height="20" xmlns="http://www.w3.org/2000/svg" viewBox="0 0 512 512">
    <path fill="#e9ecef" d="M413.7 0H98.3C44.1 0 0 44.1 0 98.3v315.4C0 467.9 44.1 512 98.3 512h315.4c54.1 0 98.3-44.1 98.3-98.3V98.3C512 44.1 467.9 0 413.7 0zM232 472c-17.6 0-32-14.4-32-32s14.4-32 32-32c17.6 0 32 14.4 32 32S249.6 472 232 472zM403.7 281.9c0-66.1-53.9-120-120-120s-120 53.9-120 120 53.9 120 120 120S403.7 348 403.7 281.9zM412.5 472c-17.6 0-32-14.4-32-32s14.4-32 32-32c17.6 0 32 14.4 32 32S430.1 472 412.5 472z"></path>
</svg>
